<?xml version="1.0" encoding="UTF-8" standalone="no"?>
<!-- Created with Inkscape (http://www.inkscape.org/) -->

<svg
   width="21.100136mm"
   height="21.100136mm"
   viewBox="0 0 21.100136 21.100136"
   version="1.1"
   id="svg22031"
   sodipodi:docname="new-favicon-stalactite.svg"
   inkscape:version="1.2.2 (732a01da63, 2022-12-09)"
   xmlns:inkscape="http://www.inkscape.org/namespaces/inkscape"
   xmlns:sodipodi="http://sodipodi.sourceforge.net/DTD/sodipodi-0.dtd"
   xmlns="http://www.w3.org/2000/svg"
   xmlns:svg="http://www.w3.org/2000/svg">
  <sodipodi:namedview
     id="namedview22033"
     pagecolor="#ffffff"
     bordercolor="#666666"
     borderopacity="1.0"
     inkscape:pageshadow="2"
     inkscape:pageopacity="0.0"
     inkscape:pagecheckerboard="0"
     inkscape:document-units="mm"
     showgrid="false"
     inkscape:zoom="1"
     inkscape:cx="-285"
     inkscape:cy="122.5"
     inkscape:window-width="1841"
     inkscape:window-height="1051"
     inkscape:window-x="-9"
     inkscape:window-y="-9"
     inkscape:window-maximized="1"
     inkscape:current-layer="layer1"
     fit-margin-top="0"
     fit-margin-left="0"
     fit-margin-right="0"
     fit-margin-bottom="0"
     inkscape:showpageshadow="2"
     inkscape:deskcolor="#d1d1d1" />
  <defs
     id="defs22028" />
  <g
     inkscape:label="Calque 1"
     inkscape:groupmode="layer"
     id="layer1"
     transform="translate(-112.324,-138.80535)">
    <rect
       style="fill:#0b3450;fill-opacity:1;stroke:#0b3450;stroke-width:1.675;stroke-linecap:round;stroke-linejoin:round;stroke-miterlimit:4;stroke-dasharray:none;stroke-opacity:1;paint-order:normal"
       id="rect86"
       width="19.425137"
       height="19.425137"
       x="113.1615"
       y="139.64285"
       ry="0.63861811" />
    <path
       d="m 118.31329,150.16151 c -0.0722,-0.19593 -0.24639,-0.70493 -0.57783,-1.60889 -0.33144,-0.90396 -0.89667,-2.71191 -1.64313,-3.45777 -0.74646,-0.74586 -1.26547,-0.78456 -1.35299,-1.58859 -0.0875,-0.80403 0.48035,-0.96855 1.18262,-1.21684 0.78236,-0.27662 3.0873,-0.57832 4.62752,-0.58606 1.273,-0.0127 2.51884,0.25916 3.7789,0.38359 1.7488,0.16125 3.52778,-0.0534 5.24051,0.29183 0.97408,0.19887 0.84971,0.97134 0.86926,1.60178 -0.009,2.21228 -0.70564,3.52078 -1.61912,4.6229 -0.47737,0.66574 -0.76444,1.48805 -0.9882,2.22248 -0.25429,0.85938 -0.45342,2.45605 -0.6163,2.6153 -0.67573,0.56077 -0.94333,-0.86589 -1.11212,-1.39785 -0.31582,-1.04784 -0.34154,-2.17121 -0.7462,-3.19098 -0.47065,-0.92601 -0.86971,0.23306 -0.9405,0.75589 -0.35462,1.91323 -0.64374,5.51326 -0.74865,5.78432 -0.13964,0.50155 -0.50788,1.16012 -1.00341,0.39571 -0.18349,-0.19511 -1.00842,-3.45346 -1.43536,-5.20117 -0.23787,-1.05938 -0.39147,-2.23401 -0.93251,-3.21817 -0.43366,-0.77965 -1.07746,0.0101 -1.15537,0.78472 -0.0531,0.725 -0.0837,1.44857 -0.1092,1.59866 -0.0255,0.15008 -0.13441,0.83505 -0.2946,0.84346 -0.21416,0.0457 -0.36492,-0.25142 -0.42332,-0.43432 z"
       id="path48603"
       style="display:inline;fill:#fcc642;fill-opacity:1;stroke-width:0.0655681"
       sodipodi:nodetypes="czscsccccccccccccccczcc"
       class="UnoptimicedTransforms"
       transform="translate(0.28978407,0.43545867)" />
  </g>
</svg>
