<?xml version="1.0" encoding="UTF-8" standalone="no"?>
<!-- Created with Inkscape (http://www.inkscape.org/) -->

<svg
   width="15.999939mm"
   height="15.999777mm"
   viewBox="0 0 15.999939 15.999777"
   version="1.1"
   id="svg11704"
   sodipodi:docname="stalactite-icon.svg"
   inkscape:version="1.1 (c68e22c387, 2021-05-23)"
   inkscape:export-filename="C:\Projects\code-filarete-website\asset\icon\stalactite-icon.png"
   inkscape:export-xdpi="158.75"
   inkscape:export-ydpi="158.75"
   xmlns:inkscape="http://www.inkscape.org/namespaces/inkscape"
   xmlns:sodipodi="http://sodipodi.sourceforge.net/DTD/sodipodi-0.dtd"
   xmlns="http://www.w3.org/2000/svg"
   xmlns:svg="http://www.w3.org/2000/svg">
  <sodipodi:namedview
     id="namedview11706"
     pagecolor="#ffffff"
     bordercolor="#666666"
     borderopacity="1.0"
     inkscape:pageshadow="2"
     inkscape:pageopacity="0.0"
     inkscape:pagecheckerboard="0"
     inkscape:document-units="mm"
     showgrid="false"
     fit-margin-top="0"
     fit-margin-left="0"
     fit-margin-right="0"
     fit-margin-bottom="0"
     inkscape:zoom="3.1072952"
     inkscape:cx="-71.12295"
     inkscape:cy="37.814238"
     inkscape:window-width="1858"
     inkscape:window-height="1057"
     inkscape:window-x="-8"
     inkscape:window-y="-8"
     inkscape:window-maximized="1"
     inkscape:current-layer="layer1" />
  <defs
     id="defs11701" />
  <g
     inkscape:label="Calque 1"
     inkscape:groupmode="layer"
     id="layer1"
     transform="translate(-48.879617,-113.9336)">
    <path
       style="display:inline;fill:#2b1100;fill-opacity:1;fill-rule:nonzero;stroke:#2b1100;stroke-width:0.060009;stroke-linecap:round;stroke-linejoin:round;stroke-miterlimit:4;stroke-dasharray:none;stroke-dashoffset:0;stroke-opacity:1"
       d="m 49.06767,129.83554 c -0.0905,-0.0365 -0.13695,-0.12736 -0.13695,-0.26777 0,-0.15145 0.0616,-0.14915 0.36878,0.0138 0.13177,0.0699 0.26501,0.12709 0.29608,0.12709 0.10027,0 0.21755,-0.12386 0.27162,-0.28684 0.0584,-0.17613 0.11509,-0.99091 0.0876,-1.25931 -0.0204,-0.19897 0.0355,-1.00881 0.12034,-1.74246 0.27852,-2.40946 0.89887,-4.25731 1.89744,-5.65205 l 0.17932,-0.25044 0.0203,0.22382 c 0.0112,0.1231 0.066,0.37777 0.12189,0.56593 0.12331,0.41528 0.1483,0.62776 0.0976,0.82928 -0.0628,0.2496 -0.0453,0.47547 0.0599,0.77243 0.0619,0.17479 0.0959,0.33244 0.0964,0.44685 2.6e-4,0.0973 0.0228,0.3403 0.0499,0.54016 0.0356,0.26195 0.0438,0.48312 0.0294,0.79233 -0.0174,0.37595 -0.01,0.48981 0.0636,0.92145 0.10139,0.59801 0.15495,0.77395 0.26104,0.8575 0.10762,0.0847 0.1749,0.0806 0.29181,-0.0178 0.13554,-0.11419 0.22739,-0.42127 0.2423,-0.81007 0.006,-0.16723 0.0279,-0.36741 0.0477,-0.44483 0.0198,-0.0775 0.0475,-0.534 0.0615,-1.01458 0.0251,-0.86222 0.0269,-0.87966 0.14031,-1.31862 0.0901,-0.34872 0.11363,-0.49789 0.10907,-0.69035 l -0.006,-0.24552 0.27205,-0.54884 c 0.14963,-0.30185 0.28743,-0.60636 0.30623,-0.67667 0.0188,-0.0703 0.0548,-0.39204 0.08,-0.71492 0.0252,-0.3229 0.0648,-0.65856 0.088,-0.74595 0.0411,-0.15484 0.0427,-0.14556 0.0615,0.36541 0.0175,0.47614 0.029,0.5549 0.12494,0.85789 0.11328,0.35788 0.12842,0.56088 0.0786,1.05401 -0.0227,0.22492 -0.0169,0.26611 0.0746,0.53294 0.0567,0.16542 0.0992,0.35388 0.0992,0.44033 0,0.0831 0.0224,0.32945 0.0499,0.54738 0.0358,0.28468 0.0442,0.51699 0.0296,0.82518 -0.0155,0.32825 -0.009,0.48862 0.0297,0.68314 0.0274,0.1398 0.0715,0.38786 0.0978,0.55123 0.0264,0.16338 0.0638,0.3278 0.0831,0.36541 0.10869,0.21143 0.26616,0.26634 0.41887,0.14607 0.12026,-0.0947 0.21365,-0.42074 0.23155,-0.80836 0.008,-0.17467 0.0297,-0.37485 0.0482,-0.44484 0.0184,-0.07 0.0444,-0.52046 0.0578,-1.00104 0.0242,-0.86841 0.025,-0.87649 0.1402,-1.31301 0.0895,-0.33931 0.11498,-0.49471 0.11193,-0.68314 -0.005,-0.28647 0.0375,-0.40947 0.32545,-0.95095 0.10573,-0.19879 0.21213,-0.42763 0.23644,-0.50853 0.0243,-0.0809 0.0657,-0.42222 0.0919,-0.75848 0.0464,-0.5954 0.11386,-0.93436 0.21287,-1.06993 0.0392,-0.0538 0.0571,-0.0532 0.3898,0.011 0.37235,0.0719 0.97577,0.26178 1.30178,0.40978 0.22693,0.10303 0.99595,0.62579 1.44293,0.98089 1.11687,0.88728 1.944,2.10647 2.60161,3.83473 0.31545,0.82903 0.62424,1.9364 0.71325,2.55781 0.1173,0.81891 0.20767,2.30695 0.20775,3.42063 l 3e-5,0.54508 0.11901,-0.0159 c 0.0654,-0.009 0.16899,-0.002 0.23008,0.016 0.0786,0.0226 -0.29269,0.0318 -1.26942,0.0312 l -1.3805,-7.9e-4 0.3967,-0.0759 c 0.67658,-0.12932 0.79548,-0.16768 0.92826,-0.29955 0.15918,-0.15809 0.16099,-0.2832 0.007,-0.49555 -0.18755,-0.25889 -0.23098,-0.38445 -0.28056,-0.81103 -0.0501,-0.43091 -0.0871,-0.53343 -0.27415,-0.75892 -0.066,-0.0795 -0.17863,-0.22846 -0.25034,-0.33096 -0.11373,-0.16256 -0.13037,-0.20832 -0.13037,-0.35849 0,-0.11534 -0.03,-0.24727 -0.091,-0.39985 -0.13208,-0.33064 -0.16291,-0.51494 -0.16291,-0.9739 0,-0.22519 -0.0154,-0.44968 -0.0342,-0.49888 -0.0188,-0.0492 -0.0464,-0.20595 -0.0612,-0.34837 -0.0159,-0.15292 -0.0543,-0.31271 -0.0939,-0.39031 -0.0764,-0.14987 -0.23525,-0.24438 -0.35868,-0.21336 -0.16225,0.0407 -0.21538,0.12154 -0.31711,0.48206 -0.0845,0.29948 -0.0992,0.40713 -0.10423,0.76182 -0.007,0.52755 -0.0731,0.93453 -0.18649,1.15646 -0.0656,0.12834 -0.0834,0.20027 -0.0708,0.28597 0.0647,0.44169 0.0664,0.42228 -0.0593,0.70502 -0.10826,0.24361 -0.12105,0.3027 -0.14382,0.66456 -0.0295,0.46895 -0.0922,0.67629 -0.3184,1.05311 -0.0858,0.14288 -0.15593,0.27012 -0.15593,0.28278 0,0.0412 0.24793,0.24851 0.37146,0.31063 0.15553,0.0783 0.39305,0.15554 0.64765,0.21085 0.17539,0.0381 -0.59714,0.0441 -5.73183,0.0445 -3.34562,2.6e-4 -5.96479,-0.0117 -6.00388,-0.0275 z"
       id="path11285"
       inkscape:export-filename="C:\Users\Guillaume\Downloads\path508-4.png"
       inkscape:export-xdpi="50.785927"
       inkscape:export-ydpi="50.785927" />
    <g
       id="g11297"
       style="display:inline;fill:#ffcc00;stroke:#000000;stroke-width:0.1;stroke-miterlimit:4;stroke-dasharray:none;stroke-opacity:1"
       transform="matrix(0.99437927,0,0,0.9955881,-97.385843,12.494053)">
      <path
         id="path11287"
         style="fill:#ffcc00;fill-rule:nonzero;stroke:#000000;stroke-width:0.1;stroke-linecap:butt;stroke-linejoin:miter;stroke-miterlimit:4;stroke-dasharray:none;stroke-opacity:1"
         d="m 159.57763,117.90917 c -0.95842,-0.11913 -1.34387,-0.3429 -1.50902,-0.61048 0.39835,-0.53823 0.5269,-1.00164 0.49067,-1.50889 -0.0229,-0.36243 0.37401,-0.65275 0.22431,-1.02979 -0.16561,-0.32765 0.15762,-0.45468 0.16219,-0.76427 0.005,-0.38363 0.12199,-0.45244 0.0863,-0.87547 -0.0829,-0.19907 0.0293,-0.51696 0.0734,-0.62861 0,0 0.0635,-0.43534 0.17864,-0.49656 0.0658,-0.035 0.16767,-0.1804 0.4102,0.016 0.0638,0.0599 0.21244,0.3566 0.15556,0.55406 -0.0229,0.0798 0.17543,0.4657 0.10577,0.63378 0.032,0.37013 -0.032,0.37471 0.0375,0.77083 0.0631,0.3617 0.32285,0.61252 0.2008,0.88191 0.1736,0.43371 0.54392,0.64018 0.62181,0.95724 0.10897,0.44471 0.005,0.77695 0.26718,1.11151 0.4585,0.47096 -0.0444,0.71196 -0.30238,0.76311 z"
         sodipodi:nodetypes="ccscsccscscscsccc"
         inkscape:export-filename="C:\Users\Guillaume\Downloads\path508-4.png"
         inkscape:export-xdpi="50.785927"
         inkscape:export-ydpi="50.785927" />
      <g
         id="g11295"
         style="fill:#ffcc00;stroke:#000000;stroke-width:0.1;stroke-miterlimit:4;stroke-dasharray:none;stroke-opacity:1">
        <path
           id="path11289"
           style="color:#000000;fill:#ffcc00;stroke:#000000;stroke-width:0.1;stroke-miterlimit:4;stroke-dasharray:none;stroke-opacity:1"
           d="m 154.20242,101.9851 c -1.88548,0.3979 -3.85289,1.34199 -5.52856,5.25797 -0.88364,2.05179 -1.53362,5.87488 -1.53163,10.2151 0.42468,-0.0879 1.13079,1.28816 1.01234,-1.60898 0.26501,-4.70278 1.59528,-6.65243 2.52552,-7.73744 2.16497,-2.4625 4.39406,-2.59257 6.62594,-1.60191 1.49536,1.01736 3.22366,1.94818 4.43867,6.36849 0.3555,1.21816 0.40841,3.17906 0.42175,4.97467 0.39745,-0.27017 1.17626,0.92167 0.91274,-1.86754 -0.0702,-5.70878 -1.42834,-8.84204 -2.5667,-10.5473 -2.02236,-2.85279 -4.18602,-3.72156 -6.31007,-3.45306 z"
           inkscape:export-filename="C:\Users\Guillaume\Downloads\path508-4.png"
           inkscape:export-xdpi="50.785927"
           inkscape:export-ydpi="50.785927" />
        <path
           id="path11291"
           style="fill:#ffcc00;fill-rule:nonzero;stroke:#000000;stroke-width:0.1;stroke-linecap:butt;stroke-linejoin:miter;stroke-miterlimit:4;stroke-dasharray:none;stroke-opacity:1"
           d="m 151.43079,105.36375 c -0.95841,0.18199 -1.34387,0.52366 -1.50902,0.93231 0.39836,0.82196 0.5269,1.52965 0.49067,2.30429 -0.0229,0.5535 0.37402,0.99686 0.22432,1.57267 -0.16561,0.50035 0.15762,0.69434 0.16219,1.16715 0.005,0.58586 0.12198,0.69096 0.0864,1.33697 -0.083,0.30387 0.0293,0.78946 0.0734,0.95997 0,0 0.0635,0.66486 0.17863,0.75835 0.0658,0.0535 0.16768,0.27536 0.4102,-0.0252 0.0638,-0.0913 0.21244,-0.54461 0.15557,-0.84613 -0.0229,-0.12163 0.17543,-0.71122 0.10575,-0.96788 0.032,-0.56525 -0.032,-0.57223 0.0375,-1.17718 0.0631,-0.5524 0.32284,-0.93542 0.20079,-1.34682 0.17361,-0.66232 0.54393,-0.97768 0.62182,-1.46188 0.10896,-0.67911 0.005,-1.18651 0.26718,-1.69745 0.4585,-0.71919 -0.0444,-1.08725 -0.30238,-1.16538 z"
           sodipodi:nodetypes="ccscsccscscscsccc"
           inkscape:export-filename="C:\Users\Guillaume\Downloads\path508-4.png"
           inkscape:export-xdpi="50.785927"
           inkscape:export-ydpi="50.785927" />
        <path
           id="path11293"
           style="fill:#ffcc00;fill-rule:nonzero;stroke:#000000;stroke-width:0.1;stroke-linecap:butt;stroke-linejoin:miter;stroke-miterlimit:4;stroke-dasharray:none;stroke-opacity:1"
           d="m 153.92392,104.51628 c -0.95841,0.18199 -1.34387,0.52364 -1.50902,0.93229 0.39836,0.82197 0.5269,1.52967 0.49067,2.3043 -0.0229,0.55349 0.37402,0.99685 0.22432,1.57267 -0.16561,0.50035 0.15762,0.69435 0.16219,1.16716 0.005,0.58586 0.12198,0.69096 0.0864,1.33696 -0.083,0.30388 0.0293,0.78947 0.0733,0.95998 0,0 0.0635,0.66484 0.17863,0.75835 0.0658,0.0535 0.16768,0.27536 0.4102,-0.0253 0.0638,-0.0913 0.21244,-0.5446 0.15557,-0.84613 -0.0229,-0.12164 0.17544,-0.71122 0.10576,-0.96788 0.032,-0.56524 -0.032,-0.57224 0.0375,-1.17718 0.0631,-0.55239 0.32285,-0.93542 0.20081,-1.34683 0.1736,-0.66232 0.54392,-0.97768 0.62181,-1.46188 0.10896,-0.6791 0.005,-1.18649 0.26718,-1.69743 0.4585,-0.7192 -0.0444,-1.08726 -0.30238,-1.16538 z"
           sodipodi:nodetypes="ccscsccscscscsccc"
           inkscape:export-filename="C:\Users\Guillaume\Downloads\path508-4.png"
           inkscape:export-xdpi="50.785927"
           inkscape:export-ydpi="50.785927" />
      </g>
    </g>
  </g>
</svg>
