<?xml version="1.0" encoding="UTF-8" standalone="no"?>
<!-- Created with Inkscape (http://www.inkscape.org/) -->

<svg
   width="15.999999mm"
   height="15.999999mm"
   viewBox="0 0 15.999999 15.999999"
   version="1.1"
   id="svg22031"
   sodipodi:docname="favicon-raw.svg"
   inkscape:version="1.1 (c68e22c387, 2021-05-23)"
   xmlns:inkscape="http://www.inkscape.org/namespaces/inkscape"
   xmlns:sodipodi="http://sodipodi.sourceforge.net/DTD/sodipodi-0.dtd"
   xmlns="http://www.w3.org/2000/svg"
   xmlns:svg="http://www.w3.org/2000/svg">
  <sodipodi:namedview
     id="namedview22033"
     pagecolor="#ffffff"
     bordercolor="#666666"
     borderopacity="1.0"
     inkscape:pageshadow="2"
     inkscape:pageopacity="0.0"
     inkscape:pagecheckerboard="0"
     inkscape:document-units="mm"
     showgrid="false"
     inkscape:zoom="6.2145903"
     inkscape:cx="55.9168"
     inkscape:cy="35.963755"
     inkscape:window-width="1858"
     inkscape:window-height="1057"
     inkscape:window-x="-8"
     inkscape:window-y="-8"
     inkscape:window-maximized="1"
     inkscape:current-layer="layer1"
     fit-margin-top="0"
     fit-margin-left="0"
     fit-margin-right="0"
     fit-margin-bottom="0" />
  <defs
     id="defs22028" />
  <g
     inkscape:label="Calque 1"
     inkscape:groupmode="layer"
     id="layer1"
     transform="translate(-103.0344,-136.75344)">
    <g
       id="g22039"
       style="display:inline"
       transform="translate(5.4003416,107.61048)">
      <path
         style="fill:none;stroke:#000000;stroke-width:1.879;stroke-linecap:round;stroke-linejoin:miter;stroke-miterlimit:4;stroke-dasharray:none;stroke-opacity:1"
         d="M 99.974439,30.900537 V 44.203665"
         id="path21966"
         inkscape:export-filename="C:\Users\Guillaume\Downloads\path21964.png"
         inkscape:export-xdpi="50.799999"
         inkscape:export-ydpi="50.799999" />
      <path
         style="fill:none;stroke:#000000;stroke-width:1.87859;stroke-linecap:round;stroke-linejoin:miter;stroke-miterlimit:4;stroke-dasharray:none;stroke-opacity:1"
         d="M 111.27422,30.900537 V 44.203665"
         id="path21972"
         inkscape:export-filename="C:\Users\Guillaume\Downloads\path21964.png"
         inkscape:export-xdpi="50.799999"
         inkscape:export-ydpi="50.799999" />
      <path
         id="path21964"
         style="display:inline;fill:#000000;fill-rule:nonzero;stroke:#ffffff;stroke-width:0.374173;stroke-linecap:butt;stroke-linejoin:miter;stroke-miterlimit:4;stroke-dasharray:none;stroke-opacity:1"
         d="M 8.7734375 0.001953125 C 8.318741 0.0073521856 7.8617234 0.029034336 7.4023438 0.068359375 C 3.7268893 0.45163371 -1.0784737 3.3801963 0.21679688 7.6855469 C 1.0372718 10.686624 5.2494859 10.963057 6.9160156 8.5429688 C 9.7988956 5.9150708 13.630585 8.5691504 16.511719 9.8339844 C 21.761445 12.7467 24.497624 18.363607 26.925781 23.574219 C 27.548253 24.830499 28.797918 25.359226 29.992188 25.240234 C 31.639264 25.585238 33.50043 24.266702 34.083984 22.552734 C 36.510743 16.054211 41.203841 9.9029835 48.126953 7.9609375 C 50.27826 6.8365621 52.835184 7.4254617 54.314453 9.328125 C 56.96171 11.791742 61.358498 8.7971859 60.316406 5.421875 C 59.39972 1.4713011 54.57863 -0.12565952 50.984375 0.01171875 C 41.811366 0.280749 34.090265 6.8668789 30.185547 14.894531 C 30.167351 14.847221 30.148242 14.799199 30.130859 14.751953 C 26.21574 6.6581189 18.018933 -0.10782777 8.7734375 0.001953125 z "
         transform="matrix(0.26458333,0,0,0.26458333,97.634058,29.14296)" />
    </g>
  </g>
</svg>
