<?xml version="1.0" encoding="UTF-8" standalone="no"?>
<!-- Created with Inkscape (http://www.inkscape.org/) -->

<svg
   width="21.100136mm"
   height="21.100136mm"
   viewBox="0 0 21.100136 21.100136"
   version="1.1"
   id="svg22031"
   sodipodi:docname="favicon-blue.svg"
   inkscape:version="1.1 (c68e22c387, 2021-05-23)"
   xmlns:inkscape="http://www.inkscape.org/namespaces/inkscape"
   xmlns:sodipodi="http://sodipodi.sourceforge.net/DTD/sodipodi-0.dtd"
   xmlns="http://www.w3.org/2000/svg"
   xmlns:svg="http://www.w3.org/2000/svg">
  <sodipodi:namedview
     id="namedview22033"
     pagecolor="#ffffff"
     bordercolor="#666666"
     borderopacity="1.0"
     inkscape:pageshadow="2"
     inkscape:pageopacity="0.0"
     inkscape:pagecheckerboard="0"
     inkscape:document-units="mm"
     showgrid="false"
     inkscape:zoom="6.2145904"
     inkscape:cx="29.6882"
     inkscape:cy="33.871903"
     inkscape:window-width="1858"
     inkscape:window-height="1057"
     inkscape:window-x="-8"
     inkscape:window-y="-8"
     inkscape:window-maximized="1"
     inkscape:current-layer="layer1"
     fit-margin-top="0"
     fit-margin-left="0"
     fit-margin-right="0"
     fit-margin-bottom="0" />
  <defs
     id="defs22028" />
  <g
     inkscape:label="Calque 1"
     inkscape:groupmode="layer"
     id="layer1"
     transform="translate(-112.324,-138.80535)">
    <rect
       style="fill:#33aec1;fill-opacity:1;stroke:#33aec1;stroke-width:1.675;stroke-linecap:round;stroke-linejoin:round;stroke-miterlimit:4;stroke-dasharray:none;stroke-opacity:1;paint-order:normal"
       id="rect86"
       width="19.425137"
       height="19.425137"
       x="113.1615"
       y="139.64285"
       ry="0.63861811" />
    <g
       id="g22039"
       style="display:inline"
       transform="translate(17.240005,112.21246)">
      <path
         style="fill:none;stroke:#000000;stroke-width:1.87859;stroke-linecap:round;stroke-linejoin:miter;stroke-miterlimit:4;stroke-dasharray:none;stroke-opacity:1"
         d="M 99.974439,30.900537 V 44.203665"
         id="path21966"
         inkscape:export-filename="C:\Users\Guillaume\Downloads\path21964.png"
         inkscape:export-xdpi="50.799999"
         inkscape:export-ydpi="50.799999" />
      <path
         style="fill:none;stroke:#000000;stroke-width:1.87859;stroke-linecap:round;stroke-linejoin:miter;stroke-miterlimit:4;stroke-dasharray:none;stroke-opacity:1"
         d="M 111.27422,30.900537 V 44.203665"
         id="path21972"
         inkscape:export-filename="C:\Users\Guillaume\Downloads\path21964.png"
         inkscape:export-xdpi="50.799999"
         inkscape:export-ydpi="50.799999" />
      <path
         id="path6144"
         style="display:inline;fill:#000000;fill-rule:nonzero;stroke:#33aec1;stroke-width:0.518;stroke-linecap:butt;stroke-linejoin:miter;stroke-miterlimit:4;stroke-dasharray:none;stroke-opacity:1"
         d="m 99.289167,28.501077 c -0.729821,-0.0054 -1.452398,0.170034 -2.119767,0.585494 -0.99286,0.531445 -1.306199,2.354336 -0.0832,2.80448 0.94412,0.442677 1.34611,-0.89457 2.226221,-0.88315 2.721389,0.468663 4.249609,3.156035 5.319579,5.180304 0.49352,0.933684 1.6534,0.986938 2.10478,0 1.0654,-2.329495 2.7613,-4.800408 5.19917,-5.075917 0.88011,-0.01142 1.28262,1.325827 2.22674,0.88315 1.223,-0.450144 0.90914,-2.273035 -0.0837,-2.80448 -2.13558,-1.329474 -4.83509,-0.199655 -6.53603,1.440222 -0.75735,0.707317 -1.3262,1.596588 -1.88568,2.484086 -0.58097,-0.921894 -1.16472,-1.853372 -1.95182,-2.588473 -1.16939,-1.127415 -2.81066,-2.013897 -4.416274,-2.025716 z"
         sodipodi:nodetypes="scccssccccccss" />
    </g>
  </g>
</svg>
